<?xml version="1.0" encoding="utf-8"?>
<!-- Generator: Adobe Illustrator 16.0.4, SVG Export Plug-In . SVG Version: 6.00 Build 0)  -->
<!DOCTYPE svg PUBLIC "-//W3C//DTD SVG 1.1//EN" "http://www.w3.org/Graphics/SVG/1.1/DTD/svg11.dtd">
<svg version="1.1" id="Layer_1" xmlns="http://www.w3.org/2000/svg" xmlns:xlink="http://www.w3.org/1999/xlink" x="0px" y="0px"
	 width="58px" height="67px" viewBox="0 0 58 67" enable-background="new 0 0 58 67" xml:space="preserve">
<polygon fill="#07E6AF" points="1,17.2 29,1 57,17.2 57,49.6 29,65.8 1,49.6 "/>
<g enable-background="new    ">
	<path fill="#FFFFFF" d="M39.5,31.2c0,0.2-0.1,0.3-0.2,0.5l-9.8,9.8c-0.1,0.1-0.3,0.2-0.5,0.2s-0.3-0.101-0.5-0.2l-9.8-9.8
		c-0.1-0.1-0.2-0.3-0.2-0.5c0-0.2,0.1-0.3,0.2-0.5l1.1-1.1c0.1-0.1,0.3-0.2,0.5-0.2c0.2,0,0.3,0.1,0.5,0.2L29,38l8.3-8.3
		c0.101-0.1,0.3-0.2,0.5-0.2s0.3,0.1,0.5,0.2l1.101,1.1C39.4,30.9,39.5,31,39.5,31.2z"/>
</g>
</svg>
