<?xml version="1.0" encoding="utf-8"?>
<!-- Generator: Adobe Illustrator 16.0.4, SVG Export Plug-In . SVG Version: 6.00 Build 0)  -->
<!DOCTYPE svg PUBLIC "-//W3C//DTD SVG 1.1//EN" "http://www.w3.org/Graphics/SVG/1.1/DTD/svg11.dtd">
<svg version="1.1" xmlns="http://www.w3.org/2000/svg" xmlns:xlink="http://www.w3.org/1999/xlink" x="0px" y="0px" width="68px"
	 height="79px" viewBox="0 0 68 79" enable-background="new 0 0 68 79" xml:space="preserve">
<g id="Layer_1">
	<polygon fill="none" stroke="#888889" stroke-width="1.9817" stroke-miterlimit="10" points="1.2,20.4 34,1.4 66.9,20.4 66.9,58.4 
		34,77.4 1.2,58.4 	"/>
</g>
<g id="Icons">
	<path id="Facebook" fill="#888889" d="M29.2,28.2c0,0.9,0,5,0,5h-3.7v6.1h3.7v18.3h7.6V39.4h5.1c0,0,0.5-2.9,0.7-6.2
		c-0.7,0-5.8,0-5.8,0s0-3.6,0-4.2c0-0.6,0.8-1.5,1.6-1.5c0.8,0,2.5,0,4.1,0c0-0.8,0-3.7,0-6.4c-2.1,0-4.5,0-5.6,0
		C29,21.2,29.2,27.3,29.2,28.2z"/>
</g>
</svg>
