<?xml version="1.0" encoding="iso-8859-1"?>
<!-- Generator: Adobe Illustrator 18.1.1, SVG Export Plug-In . SVG Version: 6.00 Build 0)  -->
<svg version="1.1" id="_x30_1_x5F_key" xmlns="http://www.w3.org/2000/svg" xmlns:xlink="http://www.w3.org/1999/xlink" x="0px"
	 y="0px" viewBox="0 0 500 500" style="enable-background:new 0 0 500 500;" xml:space="preserve">
<g id="icon_x5F_01">
	<path style="fill:#07E6AF;stroke:#07E6AF;stroke-width:9;stroke-miterlimit:10;" d="M231.091,208.381
		c-10.354,10.352-10.354,27.095,0,37.447c2.202,2.203,4.846,3.965,7.711,5.507l-0.001,46.26l11.014,11.015l11.014-11.015
		l-6.608-6.607l6.608-6.609l-6.608-6.609l6.608-6.607v-19.826c2.644-1.321,5.286-3.083,7.71-5.507
		c10.353-10.354,10.353-27.095,0-37.447C258.185,198.027,241.444,198.027,231.091,208.381z" class='logo__key'/>
	<polygon style="fill:#07E6AF;" points="363.311,451.196 136.318,451.196 22.82,254.611 85.069,146.794 105.428,158.548 
		49.966,254.611 149.891,427.686 349.739,427.686 449.663,254.611 349.739,81.538 149.891,81.538 131.188,113.933 110.828,102.179 
		136.318,58.029 363.311,58.029 476.81,254.611" class='logo__outer-ring'/>
	<polygon style="fill:#07E6AF;" points="336.36,404.515 163.268,404.515 76.723,254.612 163.268,104.71 336.36,104.71 
		385.327,189.522 364.968,201.277 322.788,128.219 176.841,128.219 103.868,254.612 176.841,381.006 322.788,381.006 
		395.761,254.612 384.781,235.596 405.141,223.841 422.907,254.612 	" class='logo__middle-ring'/>
	<polygon style="fill:#07E6AF;" points="310.201,359.205 267.122,359.205 267.122,335.695 296.629,335.695 343.442,254.613 
		296.629,173.529 203,173.529 156.186,254.613 203,335.695 228.123,335.695 228.123,359.205 189.428,359.205 129.041,254.613 
		189.427,150.02 310.201,150.02 370.589,254.613 	" class='logo__inner-ring'/>
</g>
<g id="icon_x5F_shadow" style="opacity:0.1;">
	<g>
		<polygon style="opacity:0.5;" points="350.43,426.491 349.739,427.686 149.891,427.686 49.966,254.611 105.428,158.548 
			85.069,146.794 22.82,254.611 136.318,451.196 363.311,451.196 363.994,450.015 		"/>
		<polygon style="opacity:0.5;" points="110.828,102.179 131.188,113.933 149.891,81.538 151.515,81.538 137.958,58.029 
			136.318,58.029 		"/>
	</g>
	<polygon style="opacity:0.5;" points="323.495,379.782 322.788,381.006 176.841,381.006 103.868,254.612 176.841,128.219 
		178.433,128.219 164.877,104.71 163.268,104.71 76.723,254.612 163.268,404.515 336.36,404.515 337.059,403.305 	"/>
	<g>
		<polygon style="opacity:0.5;" points="228.123,359.205 228.123,335.695 203,335.695 156.186,254.613 203,173.529 204.561,173.529 
			191.004,150.02 189.427,150.02 129.041,254.613 189.428,359.205 		"/>
		<polygon style="opacity:0.5;" points="310.916,357.968 297.352,334.444 296.629,335.695 267.122,335.695 267.122,359.205 
			310.201,359.205 		"/>
	</g>
</g>
</svg>
