<?xml version="1.0" encoding="iso-8859-1"?>
<!-- Generator: Adobe Illustrator 18.1.1, SVG Export Plug-In . SVG Version: 6.00 Build 0)  -->
<svg version="1.1" id="_x30_1_x5F_key" xmlns="http://www.w3.org/2000/svg" xmlns:xlink="http://www.w3.org/1999/xlink" x="0px"
	 y="0px" viewBox="0 0 500 500" style="enable-background:new 0 0 500 500;" xml:space="preserve">
<g>
	<polygon style="fill:#07E6AF;" points="363.902,439.303 136.908,439.303 23.411,242.718 85.659,134.9 106.019,146.654 
		50.556,242.718 150.481,415.793 350.33,415.793 450.254,242.718 350.33,69.645 150.481,69.645 131.778,102.039 111.418,90.285 
		136.909,46.135 363.902,46.135 477.4,242.718 	"/>
	<polygon style="fill:#07E6AF;" points="336.951,392.621 163.858,392.621 77.313,242.719 163.858,92.816 336.951,92.816 
		385.918,177.629 365.559,189.383 323.379,116.326 177.432,116.326 104.458,242.719 177.432,369.112 323.379,369.112 
		396.352,242.719 385.371,223.702 405.73,211.947 423.498,242.719 	"/>
	<polygon style="fill:#07E6AF;" points="310.791,347.31 267.713,347.31 267.713,323.801 297.219,323.801 344.033,242.719 
		297.219,161.634 203.591,161.634 156.777,242.719 203.59,323.801 228.714,323.801 228.714,347.31 190.018,347.31 129.631,242.719 
		190.018,138.126 310.791,138.126 371.18,242.719 	"/>
	<g id="icon_x5F_shadow_2_" style="opacity:0.1;">
		<g>
			<polygon style="opacity:0.5;" points="350.988,415.29 350.299,416.485 150.45,416.485 50.525,243.41 105.987,147.347 
				85.628,135.593 23.379,243.41 136.877,439.995 363.871,439.995 364.553,438.814 			"/>
			<polygon style="opacity:0.5;" points="111.387,90.978 131.747,102.731 150.45,70.337 152.074,70.337 138.518,46.827 
				136.877,46.827 			"/>
		</g>
		<polygon style="opacity:0.5;" points="324.055,368.581 323.348,369.805 177.4,369.805 104.427,243.411 177.4,117.019 
			178.992,117.019 165.436,93.509 163.827,93.509 77.282,243.411 163.827,393.314 336.92,393.314 337.617,392.103 		"/>
		<g>
			<polygon style="opacity:0.5;" points="228.683,348.004 228.683,324.494 203.559,324.494 156.746,243.412 203.56,162.327 
				205.12,162.327 191.563,138.819 189.986,138.819 129.6,243.412 189.987,348.004 			"/>
			<polygon style="opacity:0.5;" points="311.475,346.767 297.91,323.243 297.188,324.494 267.682,324.494 267.682,348.004 
				310.76,348.004 			"/>
		</g>
	</g>
	<g>
		<path style="fill:#07E6AF;" d="M229.541,197.434c5.328-3.431,11.876-5.148,19.645-5.148c10.207,0,18.685,2.438,25.438,7.316
			c6.75,4.878,10.126,12.104,10.126,21.677c0,5.871-1.464,10.816-4.392,14.835c-1.711,2.439-4.999,5.555-9.864,9.348l-4.795,3.727
			c-2.612,2.031-4.348,4.403-5.202,7.112c-0.541,1.717-0.834,4.381-0.879,7.993h-18.357c0.27-7.631,0.99-12.904,2.161-15.817
			c1.171-2.912,4.188-6.266,9.05-10.059l4.932-3.861c1.621-1.22,2.927-2.552,3.916-3.997c1.802-2.483,2.702-5.216,2.702-8.196
			c0-3.432-1.002-6.56-3.007-9.382c-2.005-2.822-5.666-4.234-10.981-4.234c-5.227,0-8.934,1.739-11.118,5.217
			c-2.185,3.477-3.277,7.09-3.277,10.838h-19.577C216.603,211.931,221.096,202.809,229.541,197.434z M240.786,273.574h20.255v19.577
			h-20.255V273.574z"/>
	</g>
</g>
</svg>
