<?xml version="1.0" encoding="utf-8"?>
<!-- Generator: Adobe Illustrator 16.0.4, SVG Export Plug-In . SVG Version: 6.00 Build 0)  -->
<!DOCTYPE svg PUBLIC "-//W3C//DTD SVG 1.1//EN" "http://www.w3.org/Graphics/SVG/1.1/DTD/svg11.dtd">
<svg version="1.1" xmlns="http://www.w3.org/2000/svg" xmlns:xlink="http://www.w3.org/1999/xlink" x="0px" y="0px" width="68px"
	 height="79px" viewBox="0 0 68 79" enable-background="new 0 0 68 79" xml:space="preserve">
<g id="Layer_1">
	<polygon fill="none" stroke="#888889" stroke-width="1.9817" stroke-miterlimit="10" points="1,20 33.9,1 66.7,20 66.7,57.9 
		33.9,76.9 1,57.9 	"/>
</g>
<g id="Icons">
</g>
<g id="Capa_1">
	<path fill="#888889" d="M51.7,27.9c-1.3,0.6-2.7,1-4.2,1.1c1.5-0.9,2.7-2.3,3.2-4c-1.4,0.8-3,1.4-4.6,1.8c-1.3-1.4-3.2-2.3-5.3-2.3
		c-4,0-7.3,3.3-7.3,7.3c0,0.6,0.1,1.1,0.2,1.7c-6.1-0.3-11.4-3.2-15-7.6c-0.6,1.1-1,2.3-1,3.7c0,2.5,1.3,4.8,3.2,6.1
		c-1.2,0-2.3-0.4-3.3-0.9v0.1c0,3.5,2.5,6.5,5.9,7.2c-0.6,0.2-1.3,0.3-1.9,0.3c-0.5,0-0.9,0-1.4-0.1c0.9,2.9,3.6,5,6.8,5.1
		c-2.5,2-5.6,3.1-9.1,3.1c-0.6,0-1.2,0-1.7-0.1c3.2,2.1,7.1,3.3,11.2,3.3C40.7,53.4,48,42.3,48,32.6l0-0.9
		C49.4,30.7,50.7,29.4,51.7,27.9z"/>
</g>
</svg>
