<?xml version="1.0" encoding="utf-8"?>
<!-- Generator: Adobe Illustrator 16.0.4, SVG Export Plug-In . SVG Version: 6.00 Build 0)  -->
<!DOCTYPE svg PUBLIC "-//W3C//DTD SVG 1.1//EN" "http://www.w3.org/Graphics/SVG/1.1/DTD/svg11.dtd">
<svg version="1.1" id="Layer_1" xmlns="http://www.w3.org/2000/svg" xmlns:xlink="http://www.w3.org/1999/xlink" x="0px" y="0px"
	 width="68px" height="79px" viewBox="0 0 68 79" enable-background="new 0 0 68 79" xml:space="preserve">
<g id="Layer_1_1_">
	<polygon fill="none" stroke="#07E6AF" stroke-width="1.9817" stroke-miterlimit="10" points="1.1,20.2 33.9,1.3 66.8,20.2 
		66.8,58.2 33.9,77.2 1.1,58.2 	"/>
	<path fill="#07E6AF" d="M45.8,38.8c3.3,0.3,6.7,0.5,9.4,1.4c-2.7-0.4-6-1.1-9.4-1.2c-1.399,2.8-4.2,4.1-8.1,4.4
		C38.1,44.3,38.9,44.7,39.1,46.1c0.301,2.2-0.5,5.4,0.301,6.801C39.8,53.6,40.3,53.6,40.7,54.2c-1,1.1-3.3-0.101-3.601-1.3
		c-0.5-2,0.7-5.2-0.6-6.601c0.1,2.2-0.5,5.3,0.1,7.3C36.8,54.4,37.5,54.7,37.4,55.4C33,55.9,34.8,49.7,34.1,46c-0.7,0-0.4,1-0.4,1.4
		c0,3.6,0.7,8.399-3.1,8c-0.1-0.7,0.5-1,0.8-1.7c0.7-2-0.1-5,0.2-7.4c-1.5,1.101,0.2,5-0.8,6.9c-0.5,1.1-2.2,1.6-3.5,1.1
		c0.2-0.8,1-0.7,1.4-1.5c0.5-1.1,0-2.7,0.2-4.3c-2.7,0.5-4.8-0.1-5.8-1.8c-0.5-0.8-0.6-1.7-1.1-2.3C21.4,43.8,20.5,43.8,20.2,42.8
		c3.4-0.8,3.5,3.5,6.5,3.601c0.9,0,1.4-0.301,2.3-0.5c0.2-1.101,0.8-1.9,1.5-2.4c-3.8-0.5-6.8-1.7-8.3-4.5c-3.4,0.2-6.5,0.6-9.4,1.3
		c2.6-1,5.9-1.3,9.3-1.4c-0.2-1.2-2-0.9-3.1-0.8c-2.1,0.1-4.7,0.3-6.3,0.7c2.4-0.9,5.7-0.7,8.9-0.8c-1-3.1-0.6-8,1.5-9.8
		c-0.6-1.5-0.4-4.1,0.4-5.2c2.4,0.1,3.9,1.2,5.4,2.2c1.9-0.5,3.8-0.8,6.4-0.7c1.101,0.1,2.2,0.5,3,0.5c0.8-0.1,1.7-1,2.4-1.3
		c1-0.4,1.899-0.6,3-0.7c0.6,1.3,0.899,3.3,0.399,4.9C46.3,29.8,47,34.3,46,38c3.1,0.2,6.8-0.1,9.2,0.8c-2.2-0.3-5.3-0.9-8.2-0.7
		C46.5,38.1,45.7,38,45.8,38.8z"/>
</g>
</svg>
